<svg width="128" height="128" viewBox="0 0 128 128" fill="none" xmlns="http://www.w3.org/2000/svg">
<path d="M63.1384 16.135L24.9189 39.6196C3.88273 52.5414 4.17774 83.1653 25.4559 95.6843L66.618 119.904C89.2476 133.218 117.588 115.876 115.975 89.6979L113.035 41.9961C111.517 17.3358 84.2149 3.18556 63.1384 16.135" fill="#FAE041"/>
<path fill-rule="evenodd" clip-rule="evenodd" d="M78.7617 40.1107C78.7617 35.0219 74.6365 30.8966 69.5477 30.8966H30.3022C25.2134 30.8966 21.0882 35.0219 21.0882 40.1106V67.2115C21.0882 71.1125 24.2506 74.275 28.1517 74.275V74.275C29.9467 74.275 31.6743 74.9584 32.9836 76.1862L37.3429 80.2743C38.4748 81.3359 40.2366 81.3359 41.3686 80.2743L45.1074 76.7681C46.8153 75.1664 49.0689 74.275 51.4104 74.275H69.5477C74.6365 74.275 78.7617 70.1497 78.7617 65.061V40.1107Z" fill="white"/>
<path fill-rule="evenodd" clip-rule="evenodd" d="M30.3022 34.82H69.5477C72.4696 34.82 74.8383 37.1887 74.8383 40.1107V65.061C74.8383 67.9829 72.4696 70.3516 69.5477 70.3516H51.4104C48.0719 70.3516 44.8588 71.6226 42.4236 73.9062L39.3557 76.7833L35.6674 73.3244C33.6309 71.4145 30.9437 70.3516 28.1517 70.3516C26.4174 70.3516 25.0115 68.9457 25.0115 67.2115V40.1106C25.0115 37.1887 27.3802 34.82 30.3022 34.82ZM69.5477 30.8966C74.6365 30.8966 78.7617 35.0219 78.7617 40.1107V65.061C78.7617 70.1497 74.6365 74.275 69.5477 74.275H51.4104C49.0689 74.275 46.8153 75.1664 45.1074 76.7681L41.3686 80.2743C40.2366 81.3359 38.4748 81.3359 37.3429 80.2743L32.9836 76.1862C31.6743 74.9584 29.9467 74.275 28.1517 74.275C24.2506 74.275 21.0882 71.1125 21.0882 67.2115V40.1106C21.0882 35.0219 25.2134 30.8966 30.3022 30.8966H69.5477Z" fill="black"/>
<path d="M71.4048 61.7427L58.4391 48.3336C57.2574 47.1115 55.2973 47.1145 54.1193 48.3403L45.4094 57.4038C44.31 58.5478 42.51 58.638 41.3018 57.6096L38.9552 55.6122C37.7384 54.5765 35.9235 54.6763 34.8275 55.839L29.3773 61.6215C28.788 62.2287 28.8128 63.1858 29.4327 63.7593C30.0386 64.3197 30.9887 64.3063 31.5816 63.7387L31.6224 63.6982L35.0255 60.0479C36.1194 58.8745 37.9428 58.7693 39.1644 59.8091L41.51 61.8058C42.7182 62.8343 44.5183 62.7441 45.6177 61.6001L54.0658 52.8089C55.2395 51.5875 57.1911 51.5795 58.3749 52.7912L69.0902 63.7603C69.6461 64.3687 70.5944 64.4327 71.2338 63.9144L71.2769 63.8782C71.9018 63.3334 71.9705 62.4073 71.4418 61.7847L71.4048 61.7427Z" fill="black"/>
<path fill-rule="evenodd" clip-rule="evenodd" d="M39.4321 48.3682C38.279 49.2374 36.9953 49.7154 35.5158 49.6937C35.3788 49.6882 35.2418 49.6841 35.1044 49.68C34.6965 49.6678 34.2855 49.6556 33.8623 49.6068C30.2288 49.2808 29.2497 46.4343 29.5543 44.1092C29.8154 42.1318 30.7945 40.5238 32.3393 39.3287C33.3401 38.5682 34.4715 37.8294 35.6681 37.5034C37.6263 36.9385 39.4974 37.373 40.7375 39.1983C41.8907 40.8932 42.1735 42.8054 41.7166 44.8046C41.3902 46.2387 40.6287 47.4773 39.4321 48.3682ZM38.1421 46.6405C38.8005 45.7516 39.0851 44.7175 39.0851 43.9375C39.0318 42.5406 38.6937 41.6336 37.893 40.9442C37.2169 40.3637 36.007 40.273 35.3486 40.8898C34.0498 42.0871 33.2669 43.5202 33.427 45.3525C33.5338 46.6042 34.3878 47.5838 35.5266 47.856C36.6831 48.1281 37.5016 47.4931 38.1421 46.6405Z" fill="black"/>
<path d="M94.2999 17.3626C93.4031 17.3626 93.1178 16.7106 92.7102 16.3031C90.2646 13.9804 87.8598 11.6169 85.4142 9.29408C84.8435 8.72358 84.1099 8.27533 83.4169 7.86782C83.0093 7.62332 82.5202 7.70482 82.1534 8.03082C81.7865 8.35683 81.5827 8.76433 81.6643 9.25333C81.8273 10.2721 82.4387 11.0871 83.1316 11.8206C84.9251 13.7359 86.8 15.6511 88.6342 17.5664C89.3679 18.3407 90.1423 19.0742 90.876 19.8077C90.5499 20.5412 90.0608 20.3782 89.6532 20.3782C86.637 20.3782 83.6207 20.3374 80.6045 20.2967C79.7078 20.2967 78.7703 20.2559 77.9143 20.5819C77.3844 20.7857 76.8953 20.9894 76.5285 21.4377C75.9578 22.0897 76.0801 23.0677 76.773 23.5974C77.3844 24.0864 78.1181 24.1679 78.8518 24.2087C82.1534 24.3717 85.4142 24.494 88.7157 24.657C89.2456 24.6977 89.7347 24.6977 90.2239 24.7385C90.2646 25.5942 89.694 25.798 89.3271 26.1647C87.9005 27.5502 86.3924 28.895 85.0066 30.3212C84.0691 31.2993 83.2131 32.3995 82.3572 33.459C81.5827 34.437 81.5012 35.0483 81.9496 35.3743C82.6833 35.9448 83.3354 35.4558 83.9468 35.1298C86.637 33.7035 88.9195 31.7475 91.1206 29.6692C92.0581 28.7727 92.9548 27.8762 93.8923 27.0205C94.1776 26.776 94.7075 26.939 94.7075 27.265C94.7482 27.7132 94.7482 28.1615 94.789 28.6505C94.9113 31.2993 95.0335 33.948 95.1966 36.556C95.2373 37.2896 95.3596 38.0231 95.6042 38.6751C95.8895 39.4901 96.827 40.0198 97.5607 39.8568C98.3351 39.6938 98.865 39.1641 99.028 38.3898C99.1503 37.7786 99.1911 37.1266 99.1911 36.4745C99.1911 34.111 99.1095 31.7475 99.1095 29.3432C99.1095 29.0987 99.1503 28.7727 99.3133 28.6097C99.7209 28.2837 99.9655 28.6912 100.169 28.9357C102.004 30.7287 103.797 32.5218 105.631 34.3148C106.202 34.8853 106.854 35.415 107.547 35.8225C108.321 36.3115 109.218 36.1078 109.748 35.4558C110.196 34.8853 110.278 34.111 109.789 33.4183C109.422 32.8885 108.973 32.4403 108.525 31.992C106.895 30.4027 105.224 28.8542 103.552 27.3057C102.819 26.613 102.085 25.9202 101.392 25.2275C101.107 24.9422 101.27 24.4532 101.596 24.4125C101.963 24.3717 102.33 24.331 102.696 24.2902C106.161 24.2087 109.626 24.0864 113.09 24.0049C113.702 23.9642 114.354 23.9234 114.965 23.7604C115.74 23.5567 116.229 22.8639 116.229 22.1304C116.229 21.4377 115.78 20.7449 114.965 20.5412C114.272 20.3782 113.539 20.2967 112.805 20.2967C110.074 20.2967 107.343 20.3374 104.571 20.2967C103.593 20.2967 102.615 20.2559 101.677 20.2152C101.433 19.4817 101.963 19.2779 102.248 19.0334C104.368 17.0366 106.528 15.0806 108.647 13.0431C109.381 12.3504 109.992 11.5761 110.604 10.7611C110.93 10.3128 111.093 9.74234 110.685 9.25333C110.278 8.72358 109.748 8.76433 109.218 9.04958C108.647 9.37559 108.118 9.70159 107.588 10.0683C105.142 11.9429 102.533 13.6544 100.251 15.8141C100.006 16.0586 99.6802 16.2624 99.3949 16.4661C99.0688 16.6699 98.8242 16.4254 98.7427 16.2216C98.6204 15.8956 98.6612 15.4881 98.6612 15.1214C98.4981 12.2281 98.2943 9.29408 98.1313 6.40081C98.0905 5.38205 97.9683 4.40405 97.4384 3.50754C96.9085 2.65178 95.7265 2.65178 95.1966 3.54829C94.8297 4.11879 94.8297 4.7708 94.7482 5.38205C94.3814 8.39758 94.3406 11.3724 94.5037 14.3879C94.4629 15.4066 94.6667 16.4254 94.2999 17.3626Z" fill="black"/>
<path fill-rule="evenodd" clip-rule="evenodd" d="M54.4368 68.0646C54.4368 62.9759 58.562 58.8506 63.6508 58.8506H102.896C107.985 58.8506 112.11 62.9759 112.11 68.0646V94.2869C112.11 98.6732 108.555 102.229 104.168 102.229V102.229C102.15 102.229 100.208 102.997 98.7354 104.378L94.6296 108.228C93.4976 109.29 91.7358 109.29 90.6038 108.228L86.865 104.722C85.1571 103.12 82.9035 102.229 80.5621 102.229H63.6508C58.562 102.229 54.4368 98.1037 54.4368 93.015V68.0646Z" fill="white"/>
<path fill-rule="evenodd" clip-rule="evenodd" d="M102.896 62.774H63.6508C60.7289 62.774 58.3601 65.1427 58.3601 68.0646V93.015C58.3601 95.9369 60.7289 98.3056 63.6508 98.3056H80.5621C83.9005 98.3056 87.1137 99.5766 89.5488 101.86L92.6167 104.737L96.0516 101.516C98.2509 99.4535 101.153 98.3056 104.168 98.3056C106.388 98.3056 108.187 96.5064 108.187 94.2869V68.0646C108.187 65.1427 105.818 62.774 102.896 62.774ZM63.6508 58.8506C58.562 58.8506 54.4368 62.9759 54.4368 68.0646V93.015C54.4368 98.1037 58.562 102.229 63.6508 102.229H80.5621C82.9035 102.229 85.1571 103.12 86.865 104.722L90.6038 108.228C91.7358 109.29 93.4976 109.29 94.6296 108.228L98.7354 104.378C100.208 102.997 102.15 102.229 104.168 102.229C108.555 102.229 112.11 98.6732 112.11 94.2869V68.0646C112.11 62.9759 107.985 58.8506 102.896 58.8506H63.6508Z" fill="black"/>
<path d="M77.8237 73.8059C73.9561 73.907 71.0112 73.988 68.0663 74.0487C67.4773 74.0689 66.8883 74.0284 66.319 73.907C65.6711 73.7857 65.2981 73.3001 65.2392 72.6527C65.1606 72.0053 65.4355 71.3983 66.0245 71.1758C66.9472 70.8319 67.8896 70.5284 68.8516 70.407C74.8985 69.6787 85.1707 69.1324 91.2569 69.1527C92.533 69.1527 93.8091 69.1527 95.0852 69.1527C95.5761 69.1527 96.0669 69.1324 96.5577 69.1931C97.716 69.3145 98.4424 69.8608 98.5602 70.6498C98.678 71.4388 98.0694 72.1469 96.9307 72.4908C96.3614 72.6527 95.7724 72.7538 95.203 72.7943C90.5108 73.1585 81.6129 73.5226 77.8237 73.8059Z" fill="black"/>
<path d="M79.5006 78.9579C82.2011 78.9579 93.1657 78.9579 95.8469 78.9579C96.9078 78.9579 97.9686 79.0141 98.9331 79.5205C99.7432 79.9518 99.7625 81.0958 98.991 81.6209C98.3351 82.0709 97.5636 82.1459 96.8113 82.2397C92.1241 82.7836 79.1534 83.1399 74.4469 83.2899C72.4216 83.3649 70.3962 83.3837 68.3902 83.3649C67.7151 83.3649 67.04 83.2899 66.4034 83.1399C65.709 82.9898 65.2461 82.3522 65.2268 81.6959C65.2075 81.077 65.5354 80.5894 66.0755 80.3456C66.5963 80.1206 67.1557 79.9893 67.7151 79.858C69.509 79.4455 71.3414 79.3892 73.1546 79.3142C75.2763 79.2392 77.3788 79.1267 79.5006 79.0141C79.5006 79.0141 79.5006 78.9766 79.5006 78.9579Z" fill="black"/>
<path d="M84.7523 87.807C86.2393 87.8805 87.7264 87.9541 89.1936 88.0266C89.7884 88.0561 90.3832 88.0855 90.9535 88.1995C91.6998 88.3651 92.2169 89.077 92.1987 89.7624C92.1829 90.405 91.5838 91.1689 90.8617 91.2834C89.7792 91.4443 88.7014 91.5197 87.6038 91.5941C81.3749 92.0581 75.1195 92.2849 68.883 92.1695C67.7902 92.1583 66.6961 92.1685 65.7182 91.5197C65.1237 91.1256 65.0455 90.028 65.6058 89.6053C65.9174 89.3633 66.2886 89.1243 66.6514 89.035C67.7189 88.7876 68.805 88.5625 69.884 88.4657C74.8368 88.0672 79.7884 87.6902 84.7523 87.807Z" fill="black"/>
</svg>
