<svg width="40" height="40" viewBox="0 0 40 40" fill="none" xmlns="http://www.w3.org/2000/svg">
<path fill-rule="evenodd" clip-rule="evenodd" d="M8.22243 15.6365C9.30331 15.6365 10.2967 15.2673 11.0923 14.6532L15.8958 18.4888C15.5714 19.1266 15.3846 19.8448 15.3846 20.6075C15.3846 20.6567 15.3903 20.7042 15.3921 20.753L9.41408 22.1569C8.89188 21.0325 7.93936 20.1499 6.76705 19.7183L7.70727 15.607C7.8765 15.6255 8.04837 15.6365 8.22243 15.6365V15.6365ZM8.22243 8.43562C9.60529 8.43562 10.731 9.55782 10.731 10.9372C10.731 12.3165 9.60529 13.4387 8.22243 13.4387C6.83958 13.4387 5.7143 12.3165 5.7143 10.9372C5.7143 9.55782 6.83958 8.43562 8.22243 8.43562V8.43562ZM16.5728 7.97672C17.2198 8.82507 17.9939 9.44661 19.3125 9.70375V16.0097C18.4334 16.1486 17.9464 16.4299 17.4185 16.8154L12.5205 12.9429C12.8097 12.3336 12.953 11.6554 12.953 10.9372C12.953 10.5288 12.931 10.135 12.8325 9.75694L16.5728 7.97672ZM27.7618 10.164C27.7196 10.4163 27.6923 10.6734 27.6923 10.9372C27.6923 11.6418 27.8528 12.3077 28.1319 12.9081L23.2268 17.0264C22.7073 16.5859 21.9499 16.2589 21.5103 16.0761V9.70375C22.3895 9.47342 23.2154 8.95166 23.8462 8.23606L27.7618 10.164ZM26.684 29.9741C26.5064 29.9741 26.3314 29.9859 26.1587 30.0053L23.1666 24.1565C23.5881 23.7917 23.9459 23.3556 24.2167 22.8642L30.3354 24.4519C30.3345 24.4897 30.3297 24.5257 30.3297 24.5635C30.3297 25.5763 30.6554 26.5121 31.2027 27.2805L28.6879 30.4277C28.0791 30.1398 27.4013 29.9741 26.684 29.9741V29.9741ZM16.0558 30.9657L18.8919 25.1024C19.2752 25.2035 19.6756 25.2849 20.0906 25.2849C20.4783 25.2849 20.8532 25.2435 21.2141 25.1547L24.0783 30.6699C23.0791 31.3358 22.3499 32.6207 22.087 33.4998H17.655C17.4277 32.6207 16.8532 31.6255 16.0558 30.9657V30.9657ZM20.0906 18.1059C21.4734 18.1059 22.5991 19.2281 22.5991 20.6075C22.5991 21.9868 21.4734 23.109 20.0906 23.109C18.7077 23.109 17.5824 21.9868 17.5824 20.6075C17.5824 19.2281 18.7077 18.1059 20.0906 18.1059V18.1059ZM29.498 14.6303C30.1956 15.1776 31.0492 15.5332 31.982 15.6154L33.055 20.3068C32.138 20.7341 31.3785 21.4431 30.8976 22.3275L24.7899 20.7424C24.7912 20.6972 24.7969 20.6532 24.7969 20.6075C24.7969 19.9675 24.6673 19.3569 24.4339 18.8005L29.498 14.6303ZM29.8901 10.9372C29.8901 9.55782 31.0154 8.43562 32.3983 8.43562C33.7811 8.43562 34.9068 9.55782 34.9068 10.9372C34.9068 12.3165 33.7811 13.4387 32.3983 13.4387C31.0154 13.4387 29.8901 12.3165 29.8901 10.9372V10.9372ZM17.7112 5.13892C17.7112 3.75958 18.8365 2.63738 20.2198 2.63738C21.6027 2.63738 22.7279 3.75958 22.7279 5.13892C22.7279 6.51826 21.6027 7.64045 20.2198 7.64045C18.8365 7.64045 17.7112 6.51826 17.7112 5.13892V5.13892ZM9.84221 24.3139L15.971 22.8743C16.2277 23.338 16.5631 23.7508 16.9552 24.102L14.0809 30.0892C13.7508 30.0158 13.4092 29.9741 13.0576 29.9741C12.3248 29.9741 11.6334 30.1473 11.0145 30.4466L8.54902 27.3609C9.31298 26.5605 9.79474 25.4928 9.84221 24.3139V24.3139ZM2.63738 24.124C2.63738 22.7446 3.76265 21.6224 5.14551 21.6224C6.52837 21.6224 7.65408 22.7446 7.65408 24.124C7.65408 25.5033 6.52837 26.6255 5.14551 26.6255C3.76265 26.6255 2.63738 25.5033 2.63738 24.124V24.124ZM15.5662 34.6734C15.5662 36.0528 14.4405 37.175 13.0576 37.175C11.6747 37.175 10.5495 36.0528 10.5495 34.6734C10.5495 33.2941 11.6747 32.1719 13.0576 32.1719C14.4405 32.1719 15.5662 33.2941 15.5662 34.6734V34.6734ZM29.1925 34.6734C29.1925 36.0528 28.0668 37.175 26.684 37.175C25.3011 37.175 24.1758 36.0528 24.1758 34.6734C24.1758 33.2941 25.3011 32.1719 26.684 32.1719C28.0668 32.1719 29.1925 33.2941 29.1925 34.6734V34.6734ZM35.0356 27.0651C33.6528 27.0651 32.5275 25.9429 32.5275 24.5635C32.5275 23.1842 33.6528 22.062 35.0356 22.062C36.4185 22.062 37.5442 23.1842 37.5442 24.5635C37.5442 25.9429 36.4185 27.0651 35.0356 27.0651V27.0651ZM35.2106 19.873L34.1622 15.291C35.8853 14.5921 37.1046 12.9055 37.1046 10.9372C37.1046 8.34595 34.9934 6.23782 32.3983 6.23782C30.8532 6.23782 29.4835 6.98859 28.6251 8.14067L24.7767 6.291C24.8703 5.92133 24.9257 5.53716 24.9257 5.13892C24.9257 2.54771 22.8145 0.439575 20.2198 0.439575C17.6246 0.439575 15.5134 2.54771 15.5134 5.13892C15.5134 5.42067 15.5429 5.6954 15.5908 5.96397L11.7332 7.81804C10.8703 6.851 9.61848 6.23782 8.22243 6.23782C5.62771 6.23782 3.5165 8.34595 3.5165 10.9372C3.5165 12.5701 4.35562 14.0097 5.62507 14.8523L4.57056 19.4633C2.24661 19.7481 0.439575 21.7275 0.439575 24.124C0.439575 26.7152 2.55078 28.8233 5.14551 28.8233C5.68793 28.8233 6.20661 28.7266 6.69188 28.5574L9.31342 31.8383C8.71254 32.6277 8.35166 33.6079 8.35166 34.6734C8.35166 37.2646 10.4629 39.2844 13.0576 39.2844C15.2365 39.2844 17.069 37.8954 17.6027 35.6976H22.1394C22.673 37.8954 24.5051 39.2844 26.684 39.2844C29.2791 39.2844 31.3903 37.2207 31.3903 34.6295C31.3903 33.5481 31.0189 32.5758 30.4022 31.7811L32.8602 28.7156C33.5117 29.0563 34.2506 29.2572 35.0356 29.2572C37.6308 29.2572 39.742 27.1521 39.742 24.5609C39.742 22.0286 37.7244 19.9657 35.2106 19.873V19.873Z" fill="#E5CF4A"/>
</svg>
