<svg width="40" height="41" viewBox="0 0 40 41" fill="none" xmlns="http://www.w3.org/2000/svg">
<path fill-rule="evenodd" clip-rule="evenodd" d="M14.82 28.5239C14.82 30.4052 13.2987 31.9362 11.4284 31.9362C9.55848 31.9362 8.03716 30.4052 8.03716 28.5239C8.03716 26.6426 9.55848 25.112 11.4284 25.112C13.2987 25.112 14.82 26.6426 14.82 28.5239ZM18.1761 17.1925C18.6846 17.3459 19.2222 17.4307 19.78 17.4307C20.3563 17.4307 20.9119 17.3424 21.435 17.1793L25.3325 23.9586C24.224 24.7538 23.4156 25.9999 23.1145 27.3186H16.8855C16.5602 25.9999 15.6416 24.5626 14.3919 23.774L18.1761 17.1925ZM16.3888 11.8206C16.3888 9.93929 17.9101 8.40874 19.78 8.40874C21.6503 8.40874 23.1717 9.93929 23.1717 11.8206C23.1717 13.7019 21.6503 15.2329 19.78 15.2329C17.9101 15.2329 16.3888 13.7019 16.3888 11.8206ZM25.18 28.5239C25.18 26.6426 26.7013 25.112 28.5712 25.112C30.4416 25.112 31.9629 26.6426 31.9629 28.5239C31.9629 30.4052 30.4416 31.9362 28.5712 31.9362C26.7013 31.9362 25.18 30.4052 25.18 28.5239ZM28.5712 22.9142C28.1501 22.9142 27.7413 22.9652 27.3462 23.054L23.362 16.1217C24.5875 15.0918 25.3695 13.5468 25.3695 11.8206C25.3695 8.72742 22.8622 6.21094 19.78 6.21094C16.6983 6.21094 14.191 8.72742 14.191 11.8206C14.191 13.5652 14.9888 15.1257 16.2367 16.1556L12.3088 22.9907C12.0213 22.9446 11.7286 22.9142 11.4284 22.9142C8.34661 22.9142 5.83936 25.4307 5.83936 28.5239C5.83936 31.6175 8.34661 34.1318 11.4284 34.1318C14.1712 34.1318 16.4534 32.1538 16.9242 29.5164H23.0758C23.5462 32.1538 25.8288 34.1318 28.5712 34.1318C31.6534 34.1318 34.1607 31.6162 34.1607 28.523C34.1607 25.4294 31.6534 22.9142 28.5712 22.9142Z" fill="#1FA641"/>
</svg>
